<svg width="146" height="42" viewBox="0 0 146 42" fill="none" xmlns="http://www.w3.org/2000/svg">
<path d="M71.0016 31.3784C69.6142 31.3784 68.3949 31.1577 67.3438 30.7162C66.2927 30.2537 65.4519 29.6231 64.8212 28.8242C64.1906 28.0254 63.8122 27.1004 63.686 26.0494H67.7538C67.8799 26.659 68.2162 27.1845 68.7628 27.626C69.3304 28.0464 70.0557 28.2566 70.9386 28.2566C71.8215 28.2566 72.4627 28.078 72.8621 27.7206C73.2825 27.3632 73.4927 26.9533 73.4927 26.4908C73.4927 25.8181 73.1984 25.3661 72.6098 25.1349C72.0212 24.8826 71.2013 24.6409 70.1503 24.4097C69.4776 24.2625 68.7943 24.0838 68.1006 23.8736C67.4069 23.6634 66.7657 23.4006 66.1771 23.0853C65.6095 22.7489 65.1471 22.3285 64.7897 21.824C64.4323 21.2984 64.2536 20.6573 64.2536 19.9005C64.2536 18.513 64.8002 17.3463 65.8933 16.4003C67.0075 15.4543 68.5631 14.9814 70.5602 14.9814C72.4101 14.9814 73.8816 15.4123 74.9748 16.2742C76.0889 17.1361 76.7511 18.3238 76.9613 19.8374H73.1459C72.9146 18.6812 72.0422 18.1031 70.5286 18.1031C69.7719 18.1031 69.1833 18.2503 68.7628 18.5446C68.3634 18.8389 68.1637 19.2067 68.1637 19.6482C68.1637 20.1107 68.4685 20.4786 69.0781 20.7519C69.6878 21.0251 70.4971 21.2774 71.5062 21.5086C72.5993 21.7609 73.5978 22.0447 74.5018 22.36C75.4267 22.6543 76.1625 23.1063 76.7091 23.7159C77.2556 24.3045 77.5289 25.1559 77.5289 26.2701C77.5499 27.2371 77.2977 28.1095 76.7721 28.8873C76.2466 29.6651 75.4898 30.2747 74.5018 30.7162C73.5138 31.1577 72.347 31.3784 71.0016 31.3784ZM78.5818 37.9372V15.3597H82.1766L82.618 17.5986C83.1225 16.9049 83.7847 16.2952 84.6046 15.7697C85.4455 15.2441 86.5281 14.9814 87.8525 14.9814C89.324 14.9814 90.6378 15.3387 91.794 16.0535C92.9503 16.7682 93.8647 17.7457 94.5374 18.986C95.2101 20.2263 95.5464 21.6348 95.5464 23.2114C95.5464 24.788 95.2101 26.1965 94.5374 27.4368C93.8647 28.6561 92.9503 29.6231 91.794 30.3378C90.6378 31.0315 89.324 31.3784 87.8525 31.3784C86.6752 31.3784 85.6452 31.1577 84.7622 30.7162C83.8793 30.2747 83.1646 29.6546 82.618 28.8558V37.9372H78.5818ZM87.0011 27.8467C88.2834 27.8467 89.345 27.4158 90.1859 26.5539C91.0268 25.692 91.4472 24.5778 91.4472 23.2114C91.4472 21.845 91.0268 20.7203 90.1859 19.8374C89.345 18.9545 88.2834 18.513 87.0011 18.513C85.6977 18.513 84.6256 18.9545 83.7847 19.8374C82.9649 20.6993 82.5549 21.8135 82.5549 23.1799C82.5549 24.5463 82.9649 25.671 83.7847 26.5539C84.6256 27.4158 85.6977 27.8467 87.0011 27.8467ZM102.022 31.3784C100.676 31.3784 99.5725 31.1682 98.7106 30.7477C97.8487 30.3063 97.2075 29.7282 96.7871 29.0134C96.3666 28.2987 96.1564 27.5104 96.1564 26.6485C96.1564 25.198 96.724 24.0207 97.8592 23.1168C98.9944 22.2129 100.697 21.7609 102.967 21.7609H106.941V21.3825C106.941 20.3104 106.636 19.5221 106.026 19.0175C105.417 18.513 104.66 18.2608 103.756 18.2608C102.936 18.2608 102.221 18.4605 101.612 18.8599C101.002 19.2383 100.624 19.8059 100.476 20.5627H96.5348C96.6399 19.4275 97.0183 18.4394 97.67 17.5986C98.3427 16.7577 99.2046 16.1165 100.256 15.6751C101.307 15.2126 102.484 14.9814 103.787 14.9814C106.016 14.9814 107.771 15.5384 109.053 16.6526C110.336 17.7667 110.977 19.3434 110.977 21.3825V31H107.54L107.161 28.4774C106.699 29.3183 106.047 30.012 105.206 30.5585C104.386 31.1051 103.325 31.3784 102.022 31.3784ZM102.936 28.2251C104.092 28.2251 104.986 27.8467 105.616 27.0899C106.268 26.3332 106.678 25.3977 106.846 24.2835H103.409C102.337 24.2835 101.57 24.4832 101.107 24.8826C100.645 25.261 100.413 25.734 100.413 26.3016C100.413 26.9113 100.645 27.3842 101.107 27.7206C101.57 28.0569 102.179 28.2251 102.936 28.2251ZM119.968 31.3784C118.371 31.3784 116.962 31.0315 115.743 30.3378C114.524 29.6441 113.557 28.6771 112.842 27.4368C112.148 26.1965 111.801 24.7775 111.801 23.1799C111.801 21.5822 112.148 20.1632 112.842 18.923C113.557 17.6827 114.524 16.7157 115.743 16.0219C116.962 15.3282 118.371 14.9814 119.968 14.9814C121.965 14.9814 123.647 15.5069 125.014 16.558C126.38 17.5881 127.252 19.0175 127.631 20.8464H123.374C123.164 20.0897 122.743 19.5011 122.113 19.0806C121.503 18.6392 120.778 18.4184 119.937 18.4184C118.823 18.4184 117.877 18.8389 117.099 19.6797C116.321 20.5206 115.932 21.6873 115.932 23.1799C115.932 24.6724 116.321 25.8391 117.099 26.68C117.877 27.5209 118.823 27.9413 119.937 27.9413C120.778 27.9413 121.503 27.7311 122.113 27.3107C122.743 26.8902 123.164 26.2911 123.374 25.5133H127.631C127.252 27.2791 126.38 28.6981 125.014 29.7702C123.647 30.8423 121.965 31.3784 119.968 31.3784ZM130.646 37.9372L134.272 29.9594H133.326L127.24 15.3597H131.623L136.006 26.3647L140.578 15.3597H144.867L134.934 37.9372H130.646Z" fill="#171717"/>
<path d="M2.17307 37.6909L18.7621 8.95788L35.3511 37.6909H2.17307Z" stroke="#B1B1B1" stroke-width="3.3341"/>
<mask id="path-3-inside-1_327_317" fill="white">
<path d="M29.6492 7.0905C30.0255 6.43863 30.9664 6.43862 31.3428 7.09049L49.1256 37.8913C49.502 38.5432 49.0316 39.358 48.2788 39.358H12.7132C11.9604 39.358 11.49 38.5432 11.8663 37.8913L29.6492 7.0905Z"/>
</mask>
<path d="M29.6492 7.0905C30.0255 6.43863 30.9664 6.43862 31.3428 7.09049L49.1256 37.8913C49.502 38.5432 49.0316 39.358 48.2788 39.358H12.7132C11.9604 39.358 11.49 38.5432 11.8663 37.8913L29.6492 7.0905Z" fill="#FAFAFA"/>
<path d="M11.8663 37.8913L14.7538 39.5583L14.7538 39.5583L11.8663 37.8913ZM49.1256 37.8913L52.0131 36.2242L52.0131 36.2242L49.1256 37.8913ZM31.3428 7.09049L28.4554 8.75754L28.4554 8.75754L31.3428 7.09049ZM29.6492 7.0905L26.7618 5.42345L26.7618 5.42345L29.6492 7.0905ZM28.4554 8.75754L46.2382 39.5583L52.0131 36.2242L34.2302 5.42345L28.4554 8.75754ZM48.2788 36.0239H12.7132V42.6921H48.2788V36.0239ZM14.7538 39.5583L32.5366 8.75754L26.7618 5.42345L8.97893 36.2242L14.7538 39.5583ZM12.7132 36.0239C14.527 36.0239 15.6607 37.9875 14.7538 39.5583L8.97893 36.2242C7.31928 39.0989 9.39386 42.6921 12.7132 42.6921V36.0239ZM46.2382 39.5583C45.3313 37.9875 46.465 36.0239 48.2788 36.0239V42.6921C51.5982 42.6921 53.6727 39.0988 52.0131 36.2242L46.2382 39.5583ZM34.2302 5.42345C32.5706 2.54884 28.4214 2.54886 26.7618 5.42345L32.5366 8.75754C31.6297 10.3284 29.3623 10.3284 28.4554 8.75754L34.2302 5.42345Z" fill="#171717" mask="url(#path-3-inside-1_327_317)"/>
</svg>
